<svg width="375" height="131" viewBox="0 0 375 131" fill="none" xmlns="http://www.w3.org/2000/svg">
<g clip-path="url(#clip0_33_8)">
<g filter="url(#filter0_i_33_8)">
<rect width="375" height="130" rx="65" fill="url(#paint0_linear_33_8)"/>
</g>
<g opacity="0.35">
<path d="M170.071 -23.0829C168.868 -24.0361 167.598 -24.2583 167.059 -24.3464C163.995 -24.8469 162.417 -22.9022 161.173 -23.7628C160.243 -24.4069 161 -25.5627 160.066 -27.6661C159.963 -27.8977 158.728 -30.5734 155.873 -31.6486C153.507 -32.5395 151.306 -31.8514 150.418 -31.5737C147.059 -30.5236 146.038 -28.2509 144.866 -28.7628C143.828 -29.216 144.358 -31.0871 143.295 -34.1473C143.077 -34.7769 142.186 -37.1887 140.3 -39.107C139.151 -40.2754 137.839 -41.0485 136.569 -41.5591C131.57 -39.3059 126.865 -36.4477 122.455 -33.1684C117.576 -29.5409 111.829 -31.6285 106.188 -31.0883C102.299 -30.7156 98.9993 -28.7017 95.9579 -26.378C94.5571 -25.3078 93.8369 -24.1991 92.7201 -22.8871C92.4393 -22.5579 91.9609 -21.8962 91.4635 -21.7665C90.3397 -21.4725 88.5713 -22.3413 87.18 -23.054C87.5011 -22.0737 88.1036 -21.5701 87.9525 -21.3938C87.7825 -21.1955 86.9748 -21.781 85.8447 -22.1845C84.4849 -22.6699 83.3316 -22.6441 82.6139 -22.641C82.0636 -22.6384 79.8104 -22.5799 77.5995 -21.244C77.5522 -21.2157 77.4824 -21.1728 77.393 -21.1168C76.9498 -20.8367 73.0025 -18.2416 73.0201 -14.1458C73.0302 -11.7635 74.3793 -9.50594 76.1106 -8.28271C78.1 -6.87692 79.2564 -7.78159 83.2119 -6.20519C85.5621 -5.26841 85.2901 -4.89508 87.4488 -4.08799C90.6256 -2.90065 93.3937 -2.89436 95.0123 -2.90569C97.0439 -2.91954 99.3896 -2.93528 102.146 -3.96712C105.205 -5.11165 107.003 -6.84481 109.322 -6.13657C109.932 -5.95022 109.96 -5.76261 110.927 -5.4705C111.434 -5.31752 113.146 -4.83842 115.397 -5.00966C119.137 -5.29422 120.003 -7.04312 122.541 -7.28865C125.476 -7.57257 126.993 -5.13054 129.789 -3.98034C139.645 0.0733643 153.631 -2.18296 157.681 -8.80273C158.467 -10.087 158.608 -11.093 159.909 -12.077C163.062 -14.4618 166.635 -11.9304 169.946 -14.3485C170.264 -14.5802 172.186 -16.0313 172.361 -18.3606C172.563 -21.0513 170.286 -22.9136 170.071 -23.0829Z" fill="#F2F7F8"/>
<path d="M167.952 -21.3478C165.429 -22.7908 162.601 -21.876 161.719 -21.5908C158.998 -20.7101 159.119 -19.4422 157.02 -19.1419C154.594 -18.7944 154.045 -20.4344 151.565 -20.1183C149.284 -19.8281 149.137 -18.3392 146.723 -17.9955C145.048 -17.7569 144.8 -18.4286 141.79 -18.9618C140.543 -19.1828 137.798 -19.6455 134.646 -19.0569C133.384 -18.8208 131.488 -18.3109 129.345 -17.0763C128.634 -15.9362 127.044 -13.316 123.839 -12.1249C121.399 -11.2183 118.572 -10.9734 116.007 -11.1428C114.198 -11.2624 106.544 -12.2394 105.738 -15.182C103.316 -13.2499 100.799 -11.2662 97.7302 -10.59C96.2048 -10.2538 92.945 -9.57706 89.6222 -11.2687C88.0351 -12.0764 86.9743 -13.1523 86.3466 -13.9065C85.4659 -13.4853 83.8549 -12.8841 81.8743 -13.0931C77.1432 -13.5936 74.8384 -18.2448 74.6646 -18.6099C74.1503 -17.8865 73.189 -16.3215 73.0215 -14.1457C72.9774 -13.5772 72.7439 -9.66016 75.8759 -6.97133C78.8927 -4.38134 82.5655 -5.04804 83.0213 -5.13933C84.1287 -4.16226 88.7295 -0.331419 95.664 -0.375488C103.491 -0.425222 108.387 -5.37415 109.252 -6.28071C109.639 -5.88346 112.272 -3.26703 116.368 -3.49052C120.28 -3.70394 122.566 -6.34492 122.939 -6.79128C124.444 -5.87087 126.757 -4.60169 129.75 -3.53837C132.812 -2.4505 144.154 1.57739 154.48 -4.04012C156.328 -5.04552 159.168 -6.91782 161.916 -10.3596C165.793 -9.02872 169.608 -10.5088 170.835 -13.1221C171.752 -15.0768 171.157 -17.529 170.186 -19.1161C169.922 -19.5442 169.257 -20.6018 167.952 -21.3478Z" fill="#CEEAF0"/>
</g>
<g filter="url(#filter1_f_33_8)">
<circle cx="310" cy="65" r="52" fill="white"/>
</g>
<path d="M310 117C338.719 117 362 93.7188 362 65C362 36.2812 338.719 13 310 13C281.281 13 258 36.2812 258 65C258 93.7188 281.281 117 310 117Z" fill="#EFEAD7"/>
<g opacity="0.54">
<path d="M310 13C306.695 13 303.463 13.312 300.329 13.9012C324.426 18.4342 342.658 39.5858 342.658 64.9995C342.658 90.4132 324.426 111.565 300.329 116.098C303.463 116.688 306.695 116.999 310 116.999C338.719 116.999 362 93.7183 362 64.9995C362 36.2807 338.719 13 310 13Z" fill="#E5E0CF"/>
</g>
<mask id="mask0_33_8" style="mask-type:luminance" maskUnits="userSpaceOnUse" x="258" y="13" width="104" height="104">
<path d="M310 117C338.719 117 362 93.7188 362 65C362 36.2812 338.719 13 310 13C281.281 13 258 36.2812 258 65C258 93.7188 281.281 117 310 117Z" fill="white"/>
</mask>
<g mask="url(#mask0_33_8)">
<path d="M296.699 39.8743C296.29 39.8743 295.894 39.9266 295.512 40.0166C297.797 40.5535 299.5 42.5999 299.5 45.0488C299.5 47.4973 297.797 49.5437 295.512 50.0811C295.894 50.1706 296.29 50.2234 296.699 50.2234C299.557 50.2234 301.873 47.907 301.873 45.0493C301.873 42.1906 299.557 39.8743 296.699 39.8743Z" fill="#DDD8CA"/>
<path d="M299.5 45.0484C299.5 42.6 297.797 40.5535 295.512 40.0161C293.228 40.553 291.524 42.5995 291.524 45.0484C291.524 47.4968 293.227 49.5433 295.512 50.0807C297.797 49.5437 299.5 47.4973 299.5 45.0484Z" fill="#E5E0CF"/>
<path d="M296.08 100.567C295.807 100.567 295.542 100.602 295.288 100.662C296.814 101.021 297.952 102.388 297.952 104.023C297.952 105.659 296.814 107.026 295.288 107.385C295.542 107.445 295.807 107.48 296.08 107.48C297.989 107.48 299.537 105.932 299.537 104.023C299.536 102.115 297.989 100.567 296.08 100.567Z" fill="#DDD8CA"/>
<path d="M297.951 104.024C297.951 102.388 296.814 101.021 295.287 100.663C293.761 101.022 292.623 102.388 292.623 104.024C292.623 105.66 293.76 107.027 295.287 107.385C296.814 107.027 297.951 105.66 297.951 104.024Z" fill="#E5E0CF"/>
<path d="M287.52 81.0674C286.945 81.0674 286.39 81.1407 285.854 81.2669C289.061 82.0204 291.451 84.8923 291.451 88.329C291.451 91.7652 289.061 94.6375 285.854 95.3911C286.39 95.5173 286.946 95.5906 287.52 95.5906C291.53 95.5906 294.781 92.3397 294.781 88.329C294.781 84.3182 291.53 81.0674 287.52 81.0674Z" fill="#DDD8CA"/>
<path d="M291.45 88.3285C291.45 84.8923 289.06 82.0204 285.854 81.2664C282.648 82.0199 280.258 84.8918 280.258 88.3285C280.258 91.7646 282.648 94.637 285.854 95.3906C289.06 94.637 291.45 91.7651 291.45 88.3285Z" fill="#E5E0CF"/>
<path d="M277.056 42.3848C276.181 42.3848 275.334 42.4967 274.518 42.6884C279.405 43.8371 283.047 48.2136 283.047 53.4508C283.047 58.6879 279.405 63.0645 274.518 64.2131C275.334 64.4048 276.181 64.5173 277.056 64.5173C283.168 64.5173 288.122 59.5628 288.122 53.4508C288.122 47.3393 283.168 42.3848 277.056 42.3848Z" fill="#DDD8CA"/>
<path d="M283.046 53.4508C283.046 48.2137 279.404 43.8371 274.518 42.6885C269.631 43.8371 265.989 48.2137 265.989 53.4508C265.989 58.688 269.631 63.0645 274.518 64.2132C279.404 63.0645 283.046 58.688 283.046 53.4508Z" fill="#E5E0CF"/>
<path d="M329.29 76.6284C328.209 76.6284 327.161 76.7668 326.152 77.0045C332.195 78.425 336.699 83.8377 336.699 90.314C336.699 96.7908 332.195 102.203 326.152 103.624C327.161 103.861 328.209 104 329.29 104C336.849 104 342.976 97.8729 342.976 90.3145C342.976 82.7556 336.849 76.6284 329.29 76.6284Z" fill="#DDD8CA"/>
<path d="M336.699 90.3139C336.699 83.8372 332.195 78.4244 326.152 77.0044C320.109 78.4249 315.604 83.8376 315.604 90.3139C315.604 96.7907 320.109 102.203 326.152 103.624C332.195 102.203 336.699 96.7907 336.699 90.3139Z" fill="#E5E0CF"/>
<path d="M334.785 53.9248C334.104 53.9248 333.445 54.0118 332.81 54.1615C336.613 55.0554 339.449 58.4627 339.449 62.5395C339.449 66.6162 336.613 70.0231 332.81 70.9175C333.445 71.0666 334.104 71.1541 334.785 71.1541C339.543 71.1541 343.4 67.2974 343.4 62.5395C343.399 57.7815 339.543 53.9248 334.785 53.9248Z" fill="#DDD8CA"/>
<path d="M339.448 62.5389C339.448 58.4621 336.613 55.0553 332.809 54.1609C329.005 55.0548 326.17 58.4621 326.17 62.5389C326.17 66.6157 329.005 70.0225 332.809 70.9169C336.613 70.023 339.448 66.6157 339.448 62.5389Z" fill="#E5E0CF"/>
<path d="M350.458 67.9092C350.022 67.9092 349.6 67.9649 349.192 68.0608C351.629 68.6334 353.445 70.8158 353.445 73.427C353.445 76.0383 351.629 78.2202 349.192 78.7928C349.599 78.8886 350.022 78.9444 350.458 78.9444C353.505 78.9444 355.975 76.474 355.975 73.427C355.976 70.3796 353.505 67.9092 350.458 67.9092Z" fill="#DDD8CA"/>
<path d="M353.445 73.4266C353.445 70.8153 351.629 68.6334 349.193 68.0603C346.757 68.6329 344.94 70.8153 344.94 73.4266C344.94 76.0378 346.756 78.2197 349.193 78.7923C351.629 78.2197 353.445 76.0378 353.445 73.4266Z" fill="#E5E0CF"/>
<path d="M348.158 44.8435C347.74 44.8435 347.336 44.8968 346.946 44.9887C349.278 45.5369 351.017 47.6259 351.017 50.1252C351.017 52.6244 349.278 54.7134 346.946 55.2616C347.336 55.353 347.74 55.4068 348.158 55.4068C351.074 55.4068 353.439 53.042 353.439 50.1252C353.439 47.2083 351.074 44.8435 348.158 44.8435Z" fill="#DDD8CA"/>
<path d="M351.017 50.1252C351.017 47.6259 349.278 45.5369 346.946 44.9888C344.614 45.5369 342.876 47.6259 342.876 50.1252C342.876 52.6245 344.614 54.7135 346.946 55.2616C349.278 54.7135 351.017 52.6245 351.017 50.1252Z" fill="#E5E0CF"/>
<path d="M291.799 23.1462C291.273 23.1462 290.764 23.2137 290.273 23.3291C293.212 24.0196 295.402 26.6519 295.402 29.8015C295.402 32.9511 293.212 35.5829 290.273 36.2739C290.764 36.3893 291.273 36.4568 291.799 36.4568C295.474 36.4568 298.454 33.4773 298.454 29.8015C298.454 26.1257 295.475 23.1462 291.799 23.1462Z" fill="#DDD8CA"/>
<path d="M295.402 29.8015C295.402 26.6523 293.212 24.0201 290.273 23.3291C287.335 24.0196 285.145 26.6518 285.145 29.8015C285.145 32.9511 287.335 35.5829 290.273 36.2738C293.212 35.5829 295.402 32.9506 295.402 29.8015Z" fill="#E5E0CF"/>
</g>
<ellipse cx="26" cy="176" rx="136" ry="101" fill="url(#paint1_linear_33_8)"/>
<circle cx="79.5" cy="27.5" r="1.5" fill="#C7C7C7"/>
<circle cx="146.5" cy="29.5" r="1.5" fill="#C7C7C7"/>
<circle cx="244.5" cy="107.5" r="1.5" fill="#C7C7C7"/>
<circle cx="232.5" cy="20.5" r="1.5" fill="#C7C7C7"/>
<circle cx="219.5" cy="48.5" r="1.5" fill="#C7C7C7"/>
<circle cx="174.5" cy="74.5" r="1.5" fill="#C7C7C7"/>
<circle cx="163.5" cy="109.5" r="1.5" fill="#C7C7C7"/>
<circle cx="87.5" cy="61.5" r="1.5" fill="#C7C7C7"/>
<circle cx="40.5" cy="42.5" r="1.5" fill="#C7C7C7"/>
</g>
<defs>
<filter id="filter0_i_33_8" x="-2" y="0" width="377" height="134" filterUnits="userSpaceOnUse" color-interpolation-filters="sRGB">
<feFlood flood-opacity="0" result="BackgroundImageFix"/>
<feBlend mode="normal" in="SourceGraphic" in2="BackgroundImageFix" result="shape"/>
<feColorMatrix in="SourceAlpha" type="matrix" values="0 0 0 0 0 0 0 0 0 0 0 0 0 0 0 0 0 0 127 0" result="hardAlpha"/>
<feOffset dx="-2" dy="4"/>
<feGaussianBlur stdDeviation="7"/>
<feComposite in2="hardAlpha" operator="arithmetic" k2="-1" k3="1"/>
<feColorMatrix type="matrix" values="0 0 0 0 0 0 0 0 0 0 0 0 0 0 0 0 0 0 0.3 0"/>
<feBlend mode="normal" in2="shape" result="effect1_innerShadow_33_8"/>
</filter>
<filter id="filter1_f_33_8" x="244" y="-1" width="132" height="132" filterUnits="userSpaceOnUse" color-interpolation-filters="sRGB">
<feFlood flood-opacity="0" result="BackgroundImageFix"/>
<feBlend mode="normal" in="SourceGraphic" in2="BackgroundImageFix" result="shape"/>
<feGaussianBlur stdDeviation="7" result="effect1_foregroundBlur_33_8"/>
</filter>
<linearGradient id="paint0_linear_33_8" x1="55.6421" y1="156.5" x2="382.11" y2="16.5895" gradientUnits="userSpaceOnUse">
<stop stop-color="#041326"/>
<stop offset="1" stop-color="#0E314C"/>
</linearGradient>
<linearGradient id="paint1_linear_33_8" x1="26" y1="75" x2="26" y2="277" gradientUnits="userSpaceOnUse">
<stop stop-color="#0C2F45"/>
<stop offset="1" stop-color="#151F25"/>
</linearGradient>
<clipPath id="clip0_33_8">
<rect width="375" height="130.24" rx="65.1201" fill="white"/>
</clipPath>
</defs>
</svg>
