<svg width="178" height="78" viewBox="0 0 178 78" fill="none" xmlns="http://www.w3.org/2000/svg">
<rect x="6.35" y="5.35" width="170.3" height="66.3" rx="33.15" fill="#A2D1FD" stroke="url(#paint0_linear_33_1470)" stroke-width="1.3"/>
<mask id="mask0_33_1470" style="mask-type:alpha" maskUnits="userSpaceOnUse" x="7" y="6" width="169" height="65">
<rect x="7" y="6" width="169" height="65" rx="32.5" fill="#E0FDFF"/>
</mask>
<g mask="url(#mask0_33_1470)">
<g filter="url(#filter0_i_33_1470)">
<rect x="7" y="6" width="169" height="65" rx="32.5" fill="#A2D1FD"/>
</g>
<g opacity="0.95">
<circle cx="99.2502" cy="64.8422" r="13.65" transform="rotate(-3.84411 99.2502 64.8422)" fill="white"/>
<circle cx="118.183" cy="55.7524" r="13.65" transform="rotate(-3.84411 118.183 55.7524)" fill="white"/>
<circle cx="119.229" cy="71.3173" r="13.65" transform="rotate(-3.84411 119.229 71.3173)" fill="white"/>
<circle cx="135.307" cy="58.5107" r="13.65" transform="rotate(-3.84411 135.307 58.5107)" fill="white"/>
<circle cx="142.664" cy="71.0456" r="13.65" transform="rotate(-3.84411 142.664 71.0456)" fill="white"/>
<circle cx="156.322" cy="61.0074" r="13.65" transform="rotate(-3.84411 156.322 61.0074)" fill="white"/>
</g>
<g opacity="0.95">
<circle cx="31.1575" cy="77.0981" r="13.65" transform="rotate(-3.84411 31.1575 77.0981)" fill="white"/>
<circle cx="50.0906" cy="68.0082" r="13.65" transform="rotate(-3.84411 50.0906 68.0082)" fill="white"/>
<circle cx="51.1365" cy="83.5732" r="13.65" transform="rotate(-3.84411 51.1365 83.5732)" fill="white"/>
<circle cx="67.2141" cy="70.7665" r="13.65" transform="rotate(-3.84411 67.2141 70.7665)" fill="white"/>
<circle cx="74.571" cy="83.3015" r="13.65" transform="rotate(-3.84411 74.571 83.3015)" fill="white"/>
<circle cx="88.2288" cy="73.2632" r="13.65" transform="rotate(-3.84411 88.2288 73.2632)" fill="white"/>
</g>
<g opacity="0.6">
<circle cx="111.091" cy="47.1957" r="13.65" transform="rotate(-3.84411 111.091 47.1957)" fill="white"/>
<circle cx="130.024" cy="38.1059" r="13.65" transform="rotate(-3.84411 130.024 38.1059)" fill="white"/>
<circle cx="131.07" cy="53.6708" r="13.65" transform="rotate(-3.84411 131.07 53.6708)" fill="white"/>
<circle cx="147.148" cy="40.8642" r="13.65" transform="rotate(-3.84411 147.148 40.8642)" fill="white"/>
<circle cx="154.505" cy="53.3991" r="13.65" transform="rotate(-3.84411 154.505 53.3991)" fill="white"/>
<circle cx="168.162" cy="43.3609" r="13.65" transform="rotate(-3.84411 168.162 43.3609)" fill="white"/>
</g>
<g opacity="0.6">
<circle cx="53.4167" cy="68.9256" r="13.65" transform="rotate(-4.59401 53.4167 68.9256)" fill="white"/>
<circle cx="72.2297" cy="59.5888" r="13.65" transform="rotate(-4.59401 72.2297 59.5888)" fill="white"/>
<circle cx="73.4792" cy="75.1387" r="13.65" transform="rotate(-4.59401 73.4792 75.1387)" fill="white"/>
<circle cx="89.3874" cy="62.1227" r="13.65" transform="rotate(-4.59401 89.3874 62.1227)" fill="white"/>
<circle cx="96.9079" cy="74.5603" r="13.65" transform="rotate(-4.59401 96.9079 74.5603)" fill="white"/>
<circle cx="110.433" cy="64.3442" r="13.65" transform="rotate(-4.59401 110.433 64.3442)" fill="white"/>
</g>
</g>
<g filter="url(#filter1_ddii_33_1470)">
<rect width="53.6517" height="53.6517" rx="26.8258" transform="matrix(-1 3.99602e-09 3.99602e-09 1 65.8843 11.7484)" fill="#FFC187" fill-opacity="0.96"/>
</g>
<defs>
<filter id="filter0_i_33_1470" x="7" y="6" width="169" height="72.8" filterUnits="userSpaceOnUse" color-interpolation-filters="sRGB">
<feFlood flood-opacity="0" result="BackgroundImageFix"/>
<feBlend mode="normal" in="SourceGraphic" in2="BackgroundImageFix" result="shape"/>
<feColorMatrix in="SourceAlpha" type="matrix" values="0 0 0 0 0 0 0 0 0 0 0 0 0 0 0 0 0 0 127 0" result="hardAlpha"/>
<feOffset dy="7.8"/>
<feGaussianBlur stdDeviation="5.85"/>
<feComposite in2="hardAlpha" operator="arithmetic" k2="-1" k3="1"/>
<feColorMatrix type="matrix" values="0 0 0 0 0.445833 0 0 0 0 0.734 0 0 0 0 1 0 0 0 1 0"/>
<feBlend mode="normal" in2="shape" result="effect1_innerShadow_33_1470"/>
</filter>
<filter id="filter1_ddii_33_1470" x="0.532421" y="0.0484123" width="77.0519" height="77.0516" filterUnits="userSpaceOnUse" color-interpolation-filters="sRGB">
<feFlood flood-opacity="0" result="BackgroundImageFix"/>
<feColorMatrix in="SourceAlpha" type="matrix" values="0 0 0 0 0 0 0 0 0 0 0 0 0 0 0 0 0 0 127 0" result="hardAlpha"/>
<feOffset/>
<feGaussianBlur stdDeviation="5.85"/>
<feColorMatrix type="matrix" values="0 0 0 0 1 0 0 0 0 0.756863 0 0 0 0 0.529412 0 0 0 0.6 0"/>
<feBlend mode="normal" in2="BackgroundImageFix" result="effect1_dropShadow_33_1470"/>
<feColorMatrix in="SourceAlpha" type="matrix" values="0 0 0 0 0 0 0 0 0 0 0 0 0 0 0 0 0 0 127 0" result="hardAlpha"/>
<feOffset dx="-3.9" dy="6.5"/>
<feGaussianBlur stdDeviation="2.6"/>
<feColorMatrix type="matrix" values="0 0 0 0 0.717122 0 0 0 0 0.717122 0 0 0 0 0.717122 0 0 0 0.35 0"/>
<feBlend mode="normal" in2="effect1_dropShadow_33_1470" result="effect2_dropShadow_33_1470"/>
<feBlend mode="normal" in="SourceGraphic" in2="effect2_dropShadow_33_1470" result="shape"/>
<feColorMatrix in="SourceAlpha" type="matrix" values="0 0 0 0 0 0 0 0 0 0 0 0 0 0 0 0 0 0 127 0" result="hardAlpha"/>
<feOffset dy="2.6"/>
<feGaussianBlur stdDeviation="2.6"/>
<feComposite in2="hardAlpha" operator="arithmetic" k2="-1" k3="1"/>
<feColorMatrix type="matrix" values="0 0 0 0 1 0 0 0 0 0.816106 0 0 0 0 0.645833 0 0 0 1 0"/>
<feBlend mode="normal" in2="shape" result="effect3_innerShadow_33_1470"/>
<feColorMatrix in="SourceAlpha" type="matrix" values="0 0 0 0 0 0 0 0 0 0 0 0 0 0 0 0 0 0 127 0" result="hardAlpha"/>
<feOffset dy="-2.6"/>
<feGaussianBlur stdDeviation="2.6"/>
<feComposite in2="hardAlpha" operator="arithmetic" k2="-1" k3="1"/>
<feColorMatrix type="matrix" values="0 0 0 0 1 0 0 0 0 0.631795 0 0 0 0 0.2875 0 0 0 1 0"/>
<feBlend mode="normal" in2="effect3_innerShadow_33_1470" result="effect4_innerShadow_33_1470"/>
</filter>
<linearGradient id="paint0_linear_33_1470" x1="93.45" y1="-9.6" x2="94.1" y2="91.15" gradientUnits="userSpaceOnUse">
<stop offset="0.125" stop-color="#6CB8FF"/>
<stop offset="1" stop-color="white" stop-opacity="0"/>
</linearGradient>
</defs>
</svg>
